<svg xmlns="http://www.w3.org/2000/svg" xmlns:svg="http://www.w3.org/2000/svg" xmlns:xlink="http://www.w3.org/1999/xlink" id="svg8" width="210mm" height="297mm" version="1.1" viewBox="0 0 210 297"><defs id="defs2"><linearGradient id="linearGradient1338"><stop id="stop1334" offset="0" style="stop-color:#627df6;stop-opacity:1"/><stop id="stop1336" offset="1" style="stop-color:#deaff6;stop-opacity:1"/></linearGradient><linearGradient id="linearGradient1014"><stop style="stop-color:#0070f6;stop-opacity:1" id="stop1010" offset="0"/><stop style="stop-color:#79b9f6;stop-opacity:1" id="stop1012" offset="1"/></linearGradient><linearGradient id="linearGradient1016" x1="29.905" x2="153.417" y1="184.234" y2="67.207" gradientTransform="matrix(1.472733,0,0,1.472733,-30.64094,-83.866129)" gradientUnits="userSpaceOnUse" xlink:href="#linearGradient1014"/><linearGradient id="linearGradient1332" x1="113.102" x2="87.762" y1="108.918" y2="138.75" gradientTransform="matrix(1.229477,0,0,1.229477,-10.792288,-55.495888)" gradientUnits="userSpaceOnUse" xlink:href="#linearGradient1338"/></defs><metadata id="metadata5"/><g id="layer1"><path style="opacity:1;fill:url(#linearGradient1016);fill-opacity:1;stroke:none;stroke-width:1.25076044;stroke-miterlimit:4;stroke-dasharray:none;stroke-opacity:1;paint-order:fill markers stroke" id="path817" d="M 165.02424,12.861029 A 32.56449,32.56449 0 0 0 141.0525,23.44351 19.76136,19.76136 0 0 0 124.94476,15.087876 19.76136,19.76136 0 0 0 105.18394,34.848691 19.76136,19.76136 0 0 0 105.305,36.838851 60.39739,60.39739 0 0 0 67.912805,56.814284 34.791126,34.791126 0 0 0 45.34293,48.486813 34.791126,34.791126 0 0 0 10.552021,83.278486 34.791126,34.791126 0 0 0 45.34293,118.06939 a 34.791126,34.791126 0 0 0 10.873967,-1.78849 60.39739,60.39739 0 0 0 57.038093,40.75455 60.39739,60.39739 0 0 0 9.87242,-0.83108 24.492952,24.492952 0 0 0 -0.13093,2.50083 24.492952,24.492952 0 0 0 24.49307,24.49307 24.492952,24.492952 0 0 0 24.49305,-24.49307 24.492952,24.492952 0 0 0 -13.66932,-21.9382 60.39739,60.39739 0 0 0 15.3391,-40.12894 60.39739,60.39739 0 0 0 -3.18273,-19.110876 32.56449,32.56449 0 0 0 27.1194,-32.101339 32.56449,32.56449 0 0 0 -32.56481,-32.564816 z m -80.436757,6.958332 a 7.5148826,7.5148826 0 0 0 -7.515428,7.514663 7.5148826,7.5148826 0 0 0 7.515428,7.514667 7.5148826,7.5148826 0 0 0 7.514667,-7.514667 7.5148826,7.5148826 0 0 0 -7.514667,-7.514663 z M 187.84754,77.433577 a 9.7415146,9.7415146 0 0 0 -9.74151,9.74151 9.7415146,9.7415146 0 0 0 9.74151,9.741511 9.7415146,9.7415146 0 0 0 9.74151,-9.741511 9.7415146,9.7415146 0 0 0 -9.74151,-9.74151 z M 21.684697,116.12108 a 5.2882508,5.2882508 0 0 0 -5.28782,5.28858 5.2882508,5.2882508 0 0 0 5.28782,5.28781 5.2882508,5.2882508 0 0 0 5.288575,-5.28781 5.2882508,5.2882508 0 0 0 -5.288575,-5.28858 z m 20.04012,6.67979 a 10.854831,10.854831 0 0 0 -10.854939,10.85494 10.854831,10.854831 0 0 0 10.854939,10.85494 10.854831,10.854831 0 0 0 10.854942,-10.85494 10.854831,10.854831 0 0 0 -10.854942,-10.85494 z m 64.850323,40.35804 a 12.524805,12.524805 0 0 0 -12.524687,12.5247 12.524805,12.524805 0 0 0 12.524687,12.52469 12.524805,12.524805 0 0 0 12.52471,-12.52469 12.524805,12.524805 0 0 0 -12.52471,-12.5247 z"/><path style="opacity:1;fill:#fff;fill-opacity:1;stroke:none;stroke-width:1.4697876;stroke-miterlimit:4;stroke-dasharray:none;stroke-opacity:1;paint-order:fill markers stroke" id="path1307" d="m 142.13122,113.051 -28.75021,16.59894 -28.750202,-16.59894 0,-33.197874 28.750202,-16.598937 28.75021,16.598938 z"/><path style="opacity:1;fill:url(#linearGradient1332);fill-opacity:1;stroke:none;stroke-width:.83864307;stroke-miterlimit:4;stroke-dasharray:none;stroke-opacity:1;paint-order:fill markers stroke" id="path1307-2" d="m 129.78553,105.92322 -16.40452,9.47115 -16.404518,-9.47115 0,-18.94231 16.404518,-9.471154 16.40452,9.471154 z"/></g></svg>